<?xml version="1.0" encoding="UTF-8" standalone="no"?>
<svg
   xmlns:dc="http://purl.org/dc/elements/1.1/"
   xmlns:cc="http://creativecommons.org/ns#"
   xmlns:rdf="http://www.w3.org/1999/02/22-rdf-syntax-ns#"
   xmlns:svg="http://www.w3.org/2000/svg"
   xmlns="http://www.w3.org/2000/svg"
   width="2250"
   height="1500"
   viewBox="0 0 595.31249 396.87501"
   version="1.1"
   id="svg8">
  <defs
     id="defs2" />
  <metadata
     id="metadata5">
    <rdf:RDF>
      <cc:Work
         rdf:about="">
        <dc:format>image/svg+xml</dc:format>
        <dc:type
           rdf:resource="http://purl.org/dc/dcmitype/StillImage" />
        <dc:title></dc:title>
      </cc:Work>
    </rdf:RDF>
  </metadata>
  <path
     id="halo"
     d="M 252.29973,23.329806 A 223.288,142.47243 0 0 0 29.012144,165.80261 223.288,142.47243 0 0 0 252.29973,308.27541 223.288,142.47243 0 0 0 475.58887,165.80261 223.288,142.47243 0 0 0 252.29973,23.329806 Z m 30.83834,41.215497 A 170.80385,108.98409 0 0 1 453.94156,173.52931 170.80385,108.98409 0 0 1 283.13807,282.51341 170.80385,108.98409 0 0 1 112.33472,173.52931 170.80385,108.98409 0 0 1 283.13807,64.545303 Z"
     style="opacity:1;fill:#b3b3b3;fill-opacity:1;stroke:none;stroke-width:73.61289215;stroke-linecap:butt;stroke-linejoin:round;stroke-miterlimit:4;stroke-dasharray:none;stroke-dashoffset:0;stroke-opacity:0;paint-order:normal" />
  <path
     id="mainr"
     d="M 204.27195,373.5452 V 116.9471 h 132.14979 q 36.75687,0 56.18553,6.3012 19.42865,6.3012 31.33088,23.45441 11.90222,16.9782 11.90222,41.4828 0,21.354 -9.10169,36.9319 -9.10172,15.4029 -25.02969,25.0297 -10.15192,6.1261 -27.83023,10.1519 14.17765,4.7259 20.65388,9.4518 4.37581,3.1506 12.60236,13.4775 8.40159,10.327 11.20209,15.928 l 38.33219,74.38889 h -89.6168 l -42.35794,-78.41469 q -8.05152,-15.2278 -14.3527,-19.7787 -8.57659,-5.9511 -19.42862,-5.9511 H 283.9119 V 373.5452 Z M 283.9119,220.91661 h 33.43126 q 5.42601,0 21.00394,-3.5006 7.87649,-1.5753 12.7774,-8.0515 5.07595,-6.4763 5.07595,-14.8778 0,-12.4274 -7.87649,-19.0786 -7.87645,-6.6513 -29.58054,-6.6513 H 283.9119 Z"
     style="fill:#2165b6;fill-opacity:1;fill-rule:evenodd;stroke:none;stroke-width:0.79127431;stroke-linecap:round;stroke-linejoin:round;stroke-miterlimit:4;stroke-dasharray:none;stroke-opacity:0" />
  <path
     id="side"
     d="m 164.24816,116.9425 c -9.44629,0 -17.11546,1.5518 -23.00816,4.6556 -5.89269,3.1037 -10.39105,7.6249 -13.49485,13.56261 -3.1038,5.9377 -4.65561,14.035 -4.65561,24.291 0,12.6401 3.46341,22.5577 10.3907,29.7549 6.9273,7.1523 15.9912,10.7284 27.1918,10.7284 7.87195,0 14.7316,-1.776 20.57931,-5.3297 5.80276,-3.5985 10.05408,-8.1197 12.75304,-13.5626 2.65395,-5.4429 3.98031,-12.9093 3.98031,-22.4007 0,-10.9307 -1.55183,-19.3206 -4.65562,-25.1683 -3.14877,-5.84771 -8.32109,-10.84021 -15.51828,-14.97851 l -2.49661,27.05621 c 2.15916,1.7093 3.66537,3.3067 4.52004,4.7912 1.34945,2.429 2.02467,4.993 2.02467,7.6919 0,4.2734 -1.55183,7.7368 -4.6556,10.3907 -2.15916,1.8893 -5.44268,3.0814 -9.85098,3.5762 V 116.9425 Z m 285.3514,0.07 v 68.74831 l 12.87981,138.1155 h 35.3068 l 13.23002,-138.1155 V 117.0125 Z m -295.40444,27.86341 v 27.0562 c -4.27332,-0.45 -7.4897,-1.5063 -9.64886,-3.1707 -3.46366,-2.6089 -5.19536,-6.0952 -5.19536,-10.4585 0,-3.7785 1.14646,-6.815 3.44058,-9.1091 2.29408,-2.3391 6.09574,-3.7782 11.40364,-4.3179 z m 18.96007,64.7743 c -4.09339,0 -7.84941,1.192 -11.26808,3.5761 -3.41868,2.3391 -6.05104,5.7353 -7.89533,10.1886 -1.8443,4.4532 -3.28335,11.2458 -4.31796,20.3772 -0.7197,6.0277 -1.5292,9.9408 -2.42886,11.7401 -0.8996,1.7993 -2.22721,2.6987 -3.98153,2.6987 -1.5744,0 -2.90073,-0.697 -3.98031,-2.0912 -1.12456,-1.4394 -1.687,-3.7108 -1.687,-6.8146 0,-3.0588 0.7195,-5.6684 2.15896,-7.8275 1.0796,-1.5744 2.76695,-2.6993 5.06107,-3.374 l -2.56444,-26.0446 c -4.67815,1.7993 -8.38859,4.0707 -11.13253,6.8146 -2.74392,2.6989 -4.76825,6.0952 -6.07274,10.1886 -1.3045,4.0485 -1.9569,10.3469 -1.9569,18.8936 0,8.0968 0.85508,14.5511 2.56441,19.3642 1.66435,4.8132 4.20555,8.592 7.62421,11.3359 3.41868,2.744 7.48887,4.1159 12.21203,4.1159 4.31832,0 8.16429,-1.2592 11.53796,-3.7782 3.37368,-2.564 5.78059,-5.6905 7.22001,-9.379 1.39447,-3.7336 2.9235,-10.369 4.58784,-19.9053 1.12455,-6.3875 2.06959,-10.3234 2.83427,-11.8078 1.0796,-2.0692 2.6086,-3.1029 4.58783,-3.1029 1.75432,0 3.21621,0.787 4.38574,2.3611 1.57439,2.0242 2.36232,4.8808 2.36232,8.5693 0,3.3737 -0.698,6.072 -2.09245,8.0962 -1.39444,2.0242 -3.71016,3.5988 -6.94888,4.7234 l 2.56316,27.2595 c 6.88231,-1.5743 12.1914,-5.1277 15.92496,-10.6605 3.73353,-5.5778 5.59952,-14.9116 5.59952,-28.0014 0,-9.2664 -1.14644,-16.5771 -3.44056,-21.9299 -2.33908,-5.398 -5.46552,-9.3339 -9.37899,-11.8079 -3.91348,-2.519 -7.93932,-3.7782 -12.07773,-3.7782 z m -48.44641,88.1202 v 27.4629 h 34.47961 c 6.52244,0 11.04236,1.0565 13.56139,3.1707 2.51901,2.0691 3.77821,4.7459 3.77821,8.0296 0,3.0138 -0.9438,5.3523 -2.83304,7.0167 -1.88925,1.6643 -5.08285,2.4966 -9.58108,2.4966 h -39.40509 v 27.59719 h 45.61214 c 9.40134,0 16.37375,-2.137 20.91696,-6.4103 4.49824,-4.3184 6.74682,-10.25579 6.74682,-17.81289 0,-5.6678 -1.01218,-10.436 -3.03638,-14.3044 -2.02422,-3.9135 -5.42048,-7.7823 -10.18861,-11.6058 h 11.60575 v -25.6403 z m 337.83713,34.6314 v 41.13859 h 35.30553 v -41.13859 z"
     style="fill:#2165b6;fill-opacity:0.96853021;fill-rule:evenodd;stroke:none;stroke-width:0.26458332;stroke-linecap:round;stroke-linejoin:miter;stroke-miterlimit:4;stroke-dasharray:none;stroke-dashoffset:0;stroke-opacity:0" />
  <text
     id="year"
     y="145.62073"
     x="637.82782"
     style="font-style:normal;font-variant:normal;font-weight:900;font-stretch:normal;font-size:57.15192413px;line-height:1.25;font-family:Arial;-inkscape-font-specification:'Arial Heavy';font-variant-ligatures:normal;font-variant-position:normal;font-variant-caps:normal;font-variant-numeric:normal;font-variant-alternates:normal;font-feature-settings:normal;text-indent:0;text-align:center;text-decoration:none;text-decoration-line:none;text-decoration-style:solid;text-decoration-color:#000000;letter-spacing:normal;word-spacing:normal;text-transform:none;writing-mode:lr-tb;direction:ltr;text-orientation:mixed;dominant-baseline:auto;baseline-shift:baseline;text-anchor:middle;white-space:normal;shape-padding:0;opacity:1;vector-effect:none;fill:#2165b6;fill-opacity:1;fill-rule:nonzero;stroke:none;stroke-width:0.46318871;stroke-linecap:round;stroke-linejoin:round;stroke-miterlimit:4;stroke-dasharray:none;stroke-dashoffset:0;stroke-opacity:0;paint-order:normal"
     xml:space="preserve" />
  <text
     id="y1"
     y="176.00021"
     x="542.85156"
     style="font-style:normal;font-variant:normal;font-weight:900;font-stretch:normal;font-size:81.12017822px;line-height:1.25;font-family:Arial;-inkscape-font-specification:'Arial, Heavy';font-variant-ligatures:normal;font-variant-position:normal;font-variant-caps:normal;font-variant-numeric:normal;font-variant-alternates:normal;font-feature-settings:normal;text-indent:0;text-align:center;text-decoration:none;text-decoration-line:none;text-decoration-style:solid;text-decoration-color:#000000;letter-spacing:normal;word-spacing:normal;text-transform:none;writing-mode:lr-tb;direction:ltr;text-orientation:mixed;dominant-baseline:auto;baseline-shift:baseline;text-anchor:middle;white-space:normal;shape-padding:0;opacity:1;vector-effect:none;fill:#2165b6;fill-opacity:1;fill-rule:nonzero;stroke:none;stroke-width:6.48961353;stroke-linecap:round;stroke-linejoin:round;stroke-miterlimit:4;stroke-dasharray:none;stroke-dashoffset:0;stroke-opacity:1;paint-order:markers stroke fill"
     xml:space="preserve"><tspan
       style="font-style:normal;font-variant:normal;font-weight:900;font-stretch:normal;font-size:81.12017822px;font-family:Arial;-inkscape-font-specification:'Arial, Heavy';font-variant-ligatures:normal;font-variant-caps:normal;font-variant-numeric:normal;font-feature-settings:normal;text-align:center;writing-mode:lr-tb;text-anchor:middle;fill:#2165b6;fill-opacity:1;stroke-width:6.48961353"
       y="176.00021"
       x="542.85156"
       id="tspan3379">2</tspan></text>
  <text
     xml:space="preserve"
     style="font-style:normal;font-variant:normal;font-weight:900;font-stretch:normal;font-size:81.12017822px;line-height:1.25;font-family:Arial;-inkscape-font-specification:'Arial, Heavy';font-variant-ligatures:normal;font-variant-position:normal;font-variant-caps:normal;font-variant-numeric:normal;font-variant-alternates:normal;font-feature-settings:normal;text-indent:0;text-align:center;text-decoration:none;text-decoration-line:none;text-decoration-style:solid;text-decoration-color:#000000;letter-spacing:normal;word-spacing:normal;text-transform:none;writing-mode:lr-tb;direction:ltr;text-orientation:mixed;dominant-baseline:auto;baseline-shift:baseline;text-anchor:middle;white-space:normal;shape-padding:0;opacity:1;vector-effect:none;fill:#2165b6;fill-opacity:1;fill-rule:nonzero;stroke:none;stroke-width:6.48961353;stroke-linecap:round;stroke-linejoin:round;stroke-miterlimit:4;stroke-dasharray:none;stroke-dashoffset:0;stroke-opacity:1;paint-order:markers stroke fill"
     x="542.13855"
     y="241.09454"
     id="y2"><tspan
       id="tspan3383"
       x="542.13855"
       y="241.09454"
       style="font-style:normal;font-variant:normal;font-weight:900;font-stretch:normal;font-size:81.12017822px;font-family:Arial;-inkscape-font-specification:'Arial, Heavy';font-variant-ligatures:normal;font-variant-caps:normal;font-variant-numeric:normal;font-feature-settings:normal;text-align:center;writing-mode:lr-tb;text-anchor:middle;fill:#2165b6;fill-opacity:1;stroke-width:6.48961353">0</tspan></text>
  <text
     id="y3"
     y="307.17902"
     x="545.9411"
     style="font-style:normal;font-variant:normal;font-weight:900;font-stretch:normal;font-size:81.12017822px;line-height:1.25;font-family:Arial;-inkscape-font-specification:'Arial, Heavy';font-variant-ligatures:normal;font-variant-position:normal;font-variant-caps:normal;font-variant-numeric:normal;font-variant-alternates:normal;font-feature-settings:normal;text-indent:0;text-align:center;text-decoration:none;text-decoration-line:none;text-decoration-style:solid;text-decoration-color:#000000;letter-spacing:normal;word-spacing:normal;text-transform:none;writing-mode:lr-tb;direction:ltr;text-orientation:mixed;dominant-baseline:auto;baseline-shift:baseline;text-anchor:middle;white-space:normal;shape-padding:0;opacity:1;vector-effect:none;fill:#2165b6;fill-opacity:1;fill-rule:nonzero;stroke:none;stroke-width:6.48961353;stroke-linecap:round;stroke-linejoin:round;stroke-miterlimit:4;stroke-dasharray:none;stroke-dashoffset:0;stroke-opacity:1;paint-order:markers stroke fill"
     xml:space="preserve"><tspan
       style="font-style:normal;font-variant:normal;font-weight:900;font-stretch:normal;font-size:81.12017822px;font-family:Arial;-inkscape-font-specification:'Arial, Heavy';font-variant-ligatures:normal;font-variant-caps:normal;font-variant-numeric:normal;font-feature-settings:normal;text-align:center;writing-mode:lr-tb;text-anchor:middle;fill:#2165b6;fill-opacity:1;stroke-width:6.48961353"
       y="307.17902"
       x="545.9411"
       id="tspan3387">1</tspan></text>
  <text
     xml:space="preserve"
     style="font-style:normal;font-variant:normal;font-weight:900;font-stretch:normal;font-size:81.12017822px;line-height:1.25;font-family:Arial;-inkscape-font-specification:'Arial, Heavy';font-variant-ligatures:normal;font-variant-position:normal;font-variant-caps:normal;font-variant-numeric:normal;font-variant-alternates:normal;font-feature-settings:normal;text-indent:0;text-align:center;text-decoration:none;text-decoration-line:none;text-decoration-style:solid;text-decoration-color:#000000;letter-spacing:normal;word-spacing:normal;text-transform:none;writing-mode:lr-tb;direction:ltr;text-orientation:mixed;dominant-baseline:auto;baseline-shift:baseline;text-anchor:middle;white-space:normal;shape-padding:0;opacity:1;vector-effect:none;fill:#2165b6;fill-opacity:1;fill-rule:nonzero;stroke:none;stroke-width:6.48961353;stroke-linecap:round;stroke-linejoin:round;stroke-miterlimit:4;stroke-dasharray:none;stroke-dashoffset:0;stroke-opacity:1;paint-order:markers stroke fill"
     x="542.45544"
     y="372.27332"
     id="y4"><tspan
       id="tspan3391"
       x="542.45544"
       y="372.27332"
       style="font-style:normal;font-variant:normal;font-weight:900;font-stretch:normal;font-size:81.12017822px;font-family:Arial;-inkscape-font-specification:'Arial, Heavy';font-variant-ligatures:normal;font-variant-caps:normal;font-variant-numeric:normal;font-feature-settings:normal;text-align:center;writing-mode:lr-tb;text-anchor:middle;fill:#2165b6;fill-opacity:1;stroke-width:6.48961353">9</tspan></text>
</svg>
