<?xml version="1.0" encoding="UTF-8" standalone="no"?>
<svg
   xmlns:dc="http://purl.org/dc/elements/1.1/"
   xmlns:cc="http://creativecommons.org/ns#"
   xmlns:rdf="http://www.w3.org/1999/02/22-rdf-syntax-ns#"
   xmlns:svg="http://www.w3.org/2000/svg"
   xmlns="http://www.w3.org/2000/svg"
   id="svg8"
   version="1.1"
   viewBox="0 0 420.00001 297.00001"
   height="297mm"
   width="420mm">
  <defs
     id="defs2" />
  <metadata
     id="metadata5">
    <rdf:RDF>
      <cc:Work
         rdf:about="">
        <dc:format>image/svg+xml</dc:format>
        <dc:type
           rdf:resource="http://purl.org/dc/dcmitype/StillImage" />
        <dc:title></dc:title>
      </cc:Work>
    </rdf:RDF>
  </metadata>
  <g
     transform="translate(-200.04498,126.51719)"
     id="layer1">
    <path
       id="halo"
       d="M 377.6446,-108.14578 A 165.93298,105.87616 0 0 0 211.71193,-2.2693404 165.93298,105.87616 0 0 0 377.6446,103.60708 165.93298,105.87616 0 0 0 543.57842,-2.2693404 165.93298,105.87616 0 0 0 377.6446,-108.14578 Z m 22.91704,30.628656 A 126.93021,80.989821 0 0 1 527.49157,3.4726356 126.93021,80.989821 0 0 1 400.56164,84.462458 126.93021,80.989821 0 0 1 273.63179,3.4726356 126.93021,80.989821 0 0 1 400.56164,-77.517124 Z"
       style="opacity:1;fill:#b3b3b3;fill-opacity:1;stroke:none;stroke-width:54.70426941;stroke-linecap:butt;stroke-linejoin:round;stroke-miterlimit:4;stroke-dasharray:none;stroke-dashoffset:0;stroke-opacity:1;paint-order:normal" />
    <path
       id="mainr"
       d="M 341.95351,152.11131 V -38.57554 h 98.20505 q 27.31528,0 41.7534,4.682638 14.43809,4.682638 23.28305,17.42977 8.84495,12.6170836 8.84495,30.827294 0,15.868891 -6.76378,27.445363 -6.7638,11.446425 -18.60042,18.600429 -7.54425,4.552517 -20.6816,7.544227 10.5359,3.511979 15.34861,7.023957 3.25181,2.341319 9.36525,10.01559 6.24351,7.67435 8.32466,11.83665 l 28.48595,55.280932 h -66.5973 L 431.44369,93.838658 q -5.98338,-11.3163 -10.666,-14.698225 -6.37355,-4.422465 -14.43808,-4.422465 H 401.1367 V 152.11131 Z M 401.1367,38.687766 h 24.84391 q 4.03226,0 15.60876,-2.601415 5.85329,-1.17066 9.49531,-5.983347 3.77212,-4.812761 3.77212,-11.056204 0,-9.2352284 -5.85329,-14.1779634 -5.85327,-4.94281002 -21.98233,-4.94281002 H 401.1367 Z"
       style="fill:#2165b6;fill-opacity:1;fill-rule:evenodd;stroke:none;stroke-width:0.58802313;stroke-linecap:round;stroke-linejoin:round;stroke-miterlimit:4;stroke-dasharray:none;stroke-opacity:1" />
    <path
       id="sides"
       transform="matrix(0.26458334,0,0,0.26458334,200.04498,-126.51719)"
       d="M 411.67773 332.37695 C 385.14633 332.37695 363.60524 336.73567 347.05469 345.45312 C 330.50414 354.17058 317.86977 366.86804 309.15234 383.54492 C 300.43486 400.2218 296.07617 422.96401 296.07617 451.76953 C 296.07617 487.27107 305.80534 515.12935 325.26172 535.34375 C 344.71807 555.43181 370.17417 565.47461 401.63281 565.47461 C 423.74234 565.47461 443.00941 560.48477 459.43359 550.50391 C 475.73145 540.39671 487.67156 527.69925 495.25195 512.41211 C 502.70601 497.12497 506.43164 476.15188 506.43164 449.49414 C 506.43164 418.79352 502.07292 395.23279 493.35547 378.80859 C 484.51168 362.3844 469.98393 348.35961 449.76953 336.73633 L 442.75781 412.73047 C 448.82214 417.53139 453.05462 422.01632 455.45508 426.18555 C 459.24529 433.00791 461.13867 440.20866 461.13867 447.78906 C 461.13867 459.79136 456.77995 469.52055 448.0625 476.97461 C 441.99817 482.28089 432.77586 485.62784 420.39453 487.01758 L 420.39453 332.37695 L 411.67773 332.37695 z M 1245.2539 332.37695 L 1245.2539 525.52344 L 1281.4395 913.55469 L 1380.6328 913.55469 L 1417.8027 525.52344 L 1417.8027 332.37695 L 1245.2539 332.37695 z M 383.43945 410.83594 L 383.43945 486.82812 C 371.43716 485.56472 362.40417 482.59645 356.33984 477.92188 C 346.61167 470.59416 341.74805 460.80186 341.74805 448.54688 C 341.74805 437.93431 344.97072 429.40623 351.41406 422.96289 C 357.8574 416.39321 368.53133 412.35202 383.43945 410.83594 z M 436.69336 592.76367 C 425.19644 592.76367 414.64679 596.11257 405.04492 602.80859 C 395.44308 609.37827 388.05101 618.91617 382.87109 631.42383 C 377.69113 643.93149 373.64799 663.00923 370.74219 688.65625 C 368.72075 705.58581 366.44671 716.57726 363.91992 721.63086 C 361.39311 726.68446 357.66748 729.21094 352.74023 729.21094 C 348.31834 729.21094 344.59076 727.25443 341.55859 723.33789 C 338.40007 719.29501 336.82031 712.91473 336.82031 704.19727 C 336.82031 695.60615 338.84186 688.27721 342.88477 682.21289 C 345.91693 677.79099 350.65432 674.63338 357.09766 672.73828 L 349.89648 599.58789 C 336.75711 604.64149 326.33366 611.01982 318.62695 618.72656 C 310.92019 626.30696 305.23614 635.84681 301.57227 647.34375 C 297.90842 658.71435 296.07617 676.40165 296.07617 700.40625 C 296.07617 723.14745 298.47641 741.27654 303.27734 754.79492 C 307.95191 768.3133 315.08957 778.92607 324.69141 786.63281 C 334.29325 794.33955 345.72845 798.19336 358.99414 798.19336 C 371.1228 798.19336 381.92489 794.65512 391.40039 787.58008 C 400.87589 780.3787 407.63485 771.59816 411.67773 761.23828 C 415.59426 750.75206 419.88986 732.11806 424.56445 705.33398 C 427.72295 687.3937 430.37568 676.33914 432.52344 672.16992 C 435.55563 666.35828 439.8512 663.45117 445.41016 663.45117 C 450.33743 663.45117 454.44368 665.66208 457.72852 670.08398 C 462.15041 675.76928 464.36133 683.79246 464.36133 694.15234 C 464.36133 703.62784 462.40288 711.20923 458.48633 716.89453 C 454.56981 722.57983 448.06329 727.00166 438.9668 730.16016 L 446.16797 806.7207 C 465.49798 802.2988 480.40633 792.31912 490.89258 776.7793 C 501.37878 761.11314 506.62109 734.89775 506.62109 698.13281 C 506.62109 672.10677 503.40037 651.57548 496.95703 636.54102 C 490.38736 621.38021 481.60681 610.32565 470.61523 603.37695 C 459.62364 596.30191 448.31664 592.76367 436.69336 592.76367 z M 300.625 840.26562 L 300.625 917.39453 L 397.46484 917.39453 C 415.78414 917.39453 428.47964 920.36474 435.55469 926.30273 C 442.62971 932.11436 446.16797 939.63069 446.16797 948.85352 C 446.16797 957.3183 443.51526 963.88793 438.20898 968.5625 C 432.9027 973.23707 423.93281 975.57422 411.29883 975.57422 L 300.625 975.57422 L 300.625 1053.084 L 428.73242 1053.084 C 455.13749 1053.084 474.72013 1047.0824 487.48047 1035.0801 C 500.11447 1022.9514 506.43164 1006.2759 506.43164 985.05078 C 506.43164 969.13197 503.58959 955.74023 497.9043 944.875 C 492.21901 933.8834 482.68111 923.01819 469.28906 912.2793 L 501.88477 912.2793 L 501.88477 840.26562 L 300.625 840.26562 z M 1281.627 937.50781 L 1281.627 1053.084 L 1380.8184 1053.084 L 1380.8184 937.50781 L 1281.627 937.50781 z "
       style="font-style:normal;font-variant:normal;font-weight:900;font-stretch:normal;font-size:medium;line-height:1.25;font-family:Arial;-inkscape-font-specification:'Arial Heavy';font-variant-ligatures:normal;font-variant-position:normal;font-variant-caps:normal;font-variant-numeric:normal;font-variant-alternates:normal;font-feature-settings:normal;text-indent:0;text-align:center;text-decoration:none;text-decoration-line:none;text-decoration-style:solid;text-decoration-color:#000000;letter-spacing:normal;word-spacing:normal;text-transform:none;writing-mode:lr-tb;direction:ltr;text-orientation:mixed;dominant-baseline:auto;baseline-shift:baseline;text-anchor:middle;white-space:normal;shape-padding:0;fill:#2165b6;fill-opacity:1;fill-rule:nonzero;stroke:none;stroke-width:1.79683542;stroke-linecap:round;stroke-linejoin:round;stroke-miterlimit:4;stroke-dasharray:none;stroke-dashoffset:0;stroke-opacity:1;paint-order:normal" />
    <text
       id="y1"
       y="-7.6561146"
       x="596.1015"
       style="font-style:normal;font-variant:normal;font-weight:900;font-stretch:normal;font-size:42.47012711px;line-height:1.25;font-family:Arial;-inkscape-font-specification:'Arial Heavy';font-variant-ligatures:normal;font-variant-position:normal;font-variant-caps:normal;font-variant-numeric:normal;font-variant-alternates:normal;font-feature-settings:normal;text-indent:0;text-align:center;text-decoration:none;text-decoration-line:none;text-decoration-style:solid;text-decoration-color:#000000;letter-spacing:normal;word-spacing:normal;text-transform:none;writing-mode:lr-tb;direction:ltr;text-orientation:mixed;dominant-baseline:auto;baseline-shift:baseline;text-anchor:middle;white-space:normal;shape-padding:0;opacity:1;vector-effect:none;fill:#2165b6;fill-opacity:1;fill-rule:nonzero;stroke:none;stroke-width:0.19662096;stroke-linecap:round;stroke-linejoin:round;stroke-miterlimit:4;stroke-dasharray:none;stroke-dashoffset:0;stroke-opacity:1;paint-order:normal"
       xml:space="preserve"><tspan
         style="stroke-width:0.19662096"
         y="-7.6561146"
         x="596.1015"
         id="tspan3376">2</tspan></text>
    <text
       id="y2"
       y="45.254101"
       x="595.72821"
       style="font-style:normal;font-variant:normal;font-weight:900;font-stretch:normal;font-size:42.47012711px;line-height:1.25;font-family:Arial;-inkscape-font-specification:'Arial Heavy';font-variant-ligatures:normal;font-variant-position:normal;font-variant-caps:normal;font-variant-numeric:normal;font-variant-alternates:normal;font-feature-settings:normal;text-indent:0;text-align:center;text-decoration:none;text-decoration-line:none;text-decoration-style:solid;text-decoration-color:#000000;letter-spacing:normal;word-spacing:normal;text-transform:none;writing-mode:lr-tb;direction:ltr;text-orientation:mixed;dominant-baseline:auto;baseline-shift:baseline;text-anchor:middle;white-space:normal;shape-padding:0;opacity:1;vector-effect:none;fill:#2165b6;fill-opacity:1;fill-rule:nonzero;stroke:none;stroke-width:0.19662096;stroke-linecap:round;stroke-linejoin:round;stroke-miterlimit:4;stroke-dasharray:none;stroke-dashoffset:0;stroke-opacity:1;paint-order:normal"
       xml:space="preserve"><tspan
         style="stroke-width:0.19662096"
         y="45.254101"
         x="595.72821"
         id="tspan3380">0</tspan></text>
    <text
       id="y3"
       y="98.682755"
       x="597.71906"
       style="font-style:normal;font-variant:normal;font-weight:900;font-stretch:normal;font-size:42.47012711px;line-height:1.25;font-family:Arial;-inkscape-font-specification:'Arial Heavy';font-variant-ligatures:normal;font-variant-position:normal;font-variant-caps:normal;font-variant-numeric:normal;font-variant-alternates:normal;font-feature-settings:normal;text-indent:0;text-align:center;text-decoration:none;text-decoration-line:none;text-decoration-style:solid;text-decoration-color:#000000;letter-spacing:normal;word-spacing:normal;text-transform:none;writing-mode:lr-tb;direction:ltr;text-orientation:mixed;dominant-baseline:auto;baseline-shift:baseline;text-anchor:middle;white-space:normal;shape-padding:0;opacity:1;vector-effect:none;fill:#2165b6;fill-opacity:1;fill-rule:nonzero;stroke:none;stroke-width:0.19662096;stroke-linecap:round;stroke-linejoin:round;stroke-miterlimit:4;stroke-dasharray:none;stroke-dashoffset:0;stroke-opacity:1;paint-order:normal"
       xml:space="preserve"><tspan
         style="stroke-width:0.19662096"
         y="98.682755"
         x="597.71906"
         id="tspan3384">1</tspan></text>
    <text
       id="y4"
       y="151.59297"
       x="595.89417"
       style="font-style:normal;font-variant:normal;font-weight:900;font-stretch:normal;font-size:42.47012711px;line-height:1.25;font-family:Arial;-inkscape-font-specification:'Arial Heavy';font-variant-ligatures:normal;font-variant-position:normal;font-variant-caps:normal;font-variant-numeric:normal;font-variant-alternates:normal;font-feature-settings:normal;text-indent:0;text-align:center;text-decoration:none;text-decoration-line:none;text-decoration-style:solid;text-decoration-color:#000000;letter-spacing:normal;word-spacing:normal;text-transform:none;writing-mode:lr-tb;direction:ltr;text-orientation:mixed;dominant-baseline:auto;baseline-shift:baseline;text-anchor:middle;white-space:normal;shape-padding:0;opacity:1;vector-effect:none;fill:#2165b6;fill-opacity:1;fill-rule:nonzero;stroke:none;stroke-width:0.19662096;stroke-linecap:round;stroke-linejoin:round;stroke-miterlimit:4;stroke-dasharray:none;stroke-dashoffset:0;stroke-opacity:1;paint-order:normal"
       xml:space="preserve"><tspan
         style="stroke-width:0.19662096"
         y="151.59297"
         x="595.89417"
         id="tspan3388">9</tspan></text>
  </g>
</svg>
